HIERARCHY
ROOT Hips
{
	OFFSET 0.00 0.00 0.00
	CHANNELS 6 Xposition Yposition Zposition Yrotation Xrotation Zrotation
	JOINT LHipJoint
	{
		OFFSET	0.0000	0.0000	0.0000
		CHANNELS 3 Yrotation Xrotation Zrotation
		JOINT LeftUpLeg
		{
			OFFSET	1.0138	-0.0809	-0.0827
			CHANNELS 3 Yrotation Xrotation Zrotation
			JOINT LeftLeg
			{
				OFFSET	0.4110	-3.9095	0.3245
				CHANNELS 3 Yrotation Xrotation Zrotation
				JOINT LeftFoot
				{
					OFFSET	0.3810	-4.0555	-0.1470
					CHANNELS 3 Yrotation Xrotation Zrotation
					JOINT LeftToeBase
					{
						OFFSET	0.1396	-0.4462	1.3079
						CHANNELS 3 Yrotation Xrotation Zrotation
						End Site
						{
							OFFSET 0.0161 -0.0248 0.1809
						}
					}
				}
			}
		}
	}
	JOINT LowerBack
	{
		OFFSET	0.0000	0.7977	-0.3873
		CHANNELS 3 Yrotation Xrotation Zrotation
		JOINT Spine
		{
			OFFSET	0.0000	1.4131	0.1715
			CHANNELS 3 Yrotation Xrotation Zrotation
			JOINT Spine1
			{
				OFFSET	0.0000	1.4392	-0.1032
				CHANNELS 3 Yrotation Xrotation Zrotation
				JOINT LeftShoulder
				{
					OFFSET	0.2274	1.0382	0.4032
					CHANNELS 3 Yrotation Xrotation Zrotation
					JOINT LeftArm
					{
						OFFSET	1.4730	-0.2267	-0.0231
						CHANNELS 3 Yrotation Xrotation Zrotation
						JOINT LeftForeArm
						{
							OFFSET	1.6131	-1.8059	0.0081
							CHANNELS 3 Yrotation Xrotation Zrotation
							JOINT LeftHand
							{
								OFFSET	1.2197	-1.2423	1.6317
								CHANNELS 3 Yrotation Xrotation Zrotation
								JOINT LThumb
								{
									OFFSET	0.0109	-0.0753	0.4387
									CHANNELS 3 Yrotation Xrotation Zrotation
									End Site
									{
										OFFSET -0.2090 -0.0868 0.2097
									}
								}
								JOINT LeftFingerBase
								{
									OFFSET	0.1071	-0.1567	0.2607
									CHANNELS 3 Yrotation Xrotation Zrotation
									JOINT LeftHandFinger1
									{
										OFFSET	0.1706	-0.2492	0.6830
										CHANNELS 3 Yrotation Xrotation Zrotation
										End Site
										{
											OFFSET 0.0335 -0.1507 0.2071
										}
									}
								}
							}
						}
					}
				}
				JOINT Neck
				{
					OFFSET	0.0000	1.7498	0.2381
					CHANNELS 3 Yrotation Xrotation Zrotation
					JOINT Neck1
					{
						OFFSET	0.0000	0.5043	0.1959
						CHANNELS 3 Yrotation Xrotation Zrotation
						JOINT Head
						{
							OFFSET	0.0000	0.5044	0.1959
							CHANNELS 3 Yrotation Xrotation Zrotation
							End Site
							{
								OFFSET 0.0000 1.4798 -0.0693
							}
						}
					}
				}
				JOINT RightShoulder
				{
					OFFSET	-0.2274	1.0382	0.4032
					CHANNELS 3 Yrotation Xrotation Zrotation
					JOINT RightArm
					{
						OFFSET	-1.4730	-0.2267	-0.0231
						CHANNELS 3 Yrotation Xrotation Zrotation
						JOINT RightForeArm
						{
							OFFSET	-1.6131	-1.8059	0.0081
							CHANNELS 3 Yrotation Xrotation Zrotation
							JOINT RightHand
							{
								OFFSET	-1.2197	-1.2423	1.6317
								CHANNELS 3 Yrotation Xrotation Zrotation
								JOINT RThumb
								{
									OFFSET	-0.0109	-0.0753	0.4387
									CHANNELS 3 Yrotation Xrotation Zrotation
									End Site
									{
										OFFSET 0.2090 -0.0868 0.2097
									}
								}
								JOINT RightFingerBase
								{
									OFFSET	-0.1071	-0.1567	0.2607
									CHANNELS 3 Yrotation Xrotation Zrotation
									JOINT RightHandFinger1
									{
										OFFSET	-0.1706	-0.2492	0.6830
										CHANNELS 3 Yrotation Xrotation Zrotation
										End Site
										{
											OFFSET -0.0335 -0.1507 0.2071
										}
									}
								}
							}
						}
					}
				}
			}
		}
	}
	JOINT RHipJoint
	{
		OFFSET	0.0000	0.0000	0.0000
		CHANNELS 3 Yrotation Xrotation Zrotation
		JOINT RightUpLeg
		{
			OFFSET	-1.0138	-0.0809	-0.0827
			CHANNELS 3 Yrotation Xrotation Zrotation
			JOINT RightLeg
			{
				OFFSET	-0.4110	-3.9095	0.3245
				CHANNELS 3 Yrotation Xrotation Zrotation
				JOINT RightFoot
				{
					OFFSET	-0.3810	-4.0555	-0.1470
					CHANNELS 3 Yrotation Xrotation Zrotation
					JOINT RightToeBase
					{
						OFFSET	-0.1396	-0.4462	1.3079
						CHANNELS 3 Yrotation Xrotation Zrotation
						End Site
						{
							OFFSET -0.0161 -0.0248 0.1809
						}
					}
				}
			}
		}
	}
}
MOTION
Frames: 5
Frame Time: 0.0333333
-0.0186 8.5357 0.0695 0.1646 0.7149 -1.1272 0.0000 -0.0000 0.0000 -5.5718 -27.6325 3.8338 1.7760 58.8410 -1.3278 0.1158 1.8699 3.7790 0.0000 -7.2524 0.0000 0.0000 -0.0000 0.0000 2.6444 3.7917 0.1359 5.1878 7.6682 -0.9428 -4.5717 1.7470 -0.6618 5.3360 -25.5148 -21.8651 31.2315 31.1494 6.6331 -7.2383 19.5445 3.6045 31.9094 8.1945 15.0856 0.7798 16.5029 -4.5928 -0.0482 -11.2748 2.4686 -1.4117 -6.1396 0.7583 -1.4117 -6.1397 0.7583 -3.9100 -10.7561 -2.9167 11.3711 2.8385 0.7588 -5.4503 -30.8756 23.1237 -18.8297 20.9713 -1.3525 2.8777 34.6419 -21.6521 -27.9940 -2.6489 -12.2238 3.2593 20.0621 8.1008 6.8158 -3.0113 2.9158 0.0000 -0.0000 0.0000 -1.7608 -13.1683 13.8257 -14.4306 27.0347 -6.9994 -10.1194 -17.2653 -7.6513 0.0000 -0.0228 -0.0000 
-0.0322 8.5688 0.0244 -0.5397 0.5846 -0.4945 0.0000 -0.0000 0.0000 -5.4710 -29.1173 2.8859 2.0968 49.9228 -0.4846 0.0874 1.1447 4.6066 -0.0000 -5.3606 0.0000 0.0000 -0.0000 0.0000 3.4237 3.9070 -0.3891 6.6617 7.9248 -1.6291 -3.2018 1.5422 -0.5505 5.0251 -23.9940 -20.9266 31.2315 31.1494 6.6331 -7.6064 20.5745 2.3900 31.2283 7.3036 14.5672 2.2779 15.0590 -3.3122 0.5811 -12.1127 2.9485 -1.5153 -6.1880 0.4482 -1.5153 -6.1880 0.4482 -4.7608 -11.0391 -2.6440 12.6102 2.9912 -0.1031 -3.6164 -33.7009 21.0215 -18.4816 20.6462 -1.2351 4.8843 33.8884 -19.4587 -27.9940 -2.6489 -12.2238 4.0981 20.7360 8.8361 7.6658 -2.0759 3.6152 0.0000 -0.0000 0.0000 -1.7613 -10.1543 13.0876 -14.1018 26.0017 -6.6131 -9.0558 -18.2334 -7.1383 0.0000 -0.3367 0.0000 
-0.0476 8.5903 -0.0265 -1.2028 0.7120 -0.2896 0.0000 -0.0000 0.0000 -4.9047 -29.8693 2.1281 2.5134 39.4259 0.2904 0.0411 0.8855 5.4200 -0.0000 -1.0519 0.0000 0.0000 -0.0000 0.0000 4.0500 3.9226 -0.7122 7.8937 7.9561 -1.8376 -1.8808 1.3431 -0.4084 4.9203 -22.4516 -20.3765 31.2315 31.1494 6.6331 -7.5008 21.4430 2.9187 30.4382 6.3748 13.9717 3.8134 13.4997 -2.0110 1.2066 -12.9576 3.4215 -1.5674 -6.3359 0.1855 -1.5674 -6.3360 0.1856 -5.3490 -11.1327 -2.4193 13.6014 3.1098 -0.9268 -1.6562 -35.9879 18.7312 -17.6113 19.8249 -0.9499 5.8001 33.2890 -17.6375 -27.9940 -2.6489 -12.2238 4.9289 21.3836 9.5668 8.6166 -1.0559 4.4027 0.0000 -0.0000 0.0000 -1.4165 -7.2263 12.7935 -13.7011 24.4375 -6.1356 -8.4493 -18.9324 -6.6029 -0.0000 -0.9927 -0.0000 
-0.0640 8.5975 -0.0789 -1.8296 1.1752 -0.3898 0.0000 -0.0000 0.0000 -3.8597 -30.1611 1.4176 3.6790 27.8217 1.1374 -0.1568 1.0913 5.6538 0.0000 0.2409 0.0000 0.0000 -0.0000 0.0000 4.5509 3.7979 -0.9687 8.9431 7.6797 -1.8107 -0.6709 1.1584 -0.2535 5.1892 -20.9736 -20.2424 31.2315 31.1494 6.6331 -6.5233 22.0768 4.2782 29.5530 5.4065 13.3114 5.3754 11.8280 -0.7005 1.8296 -13.8109 3.8885 -1.5844 -6.5402 -0.0226 -1.5845 -6.5402 -0.0226 -5.7064 -11.1718 -2.3157 14.3343 3.1937 -1.6092 0.3261 -37.7597 16.4130 -16.5649 18.8210 -0.6228 6.8206 32.2867 -16.3853 -27.9940 -2.6489 -12.2238 5.7542 22.0077 10.2948 9.6631 0.0351 5.2753 0.0000 -0.0000 0.0000 -0.7613 -4.5042 12.8463 -13.2856 22.4645 -5.6156 -8.2459 -19.3824 -6.1382 0.0000 -1.9351 0.0000 
-0.0794 8.5814 -0.1262 -2.4515 1.9082 -0.6716 0.0000 -0.0000 0.0000 -2.4829 -30.3628 0.6038 5.8586 16.1105 1.6376 -0.2695 1.1477 5.3419 -0.0000 0.2855 -0.0000 0.0000 -0.0000 0.0000 4.9385 3.5227 -1.2275 9.8197 7.0820 -1.7236 0.3926 0.9965 -0.1348 5.8421 -19.5281 -20.3975 31.2315 31.1494 6.6331 -5.0854 22.7365 5.4477 28.2618 4.3395 12.3261 7.1145 9.8617 0.7415 2.4157 -14.6243 4.3240 -1.5627 -6.8017 -0.1745 -1.5627 -6.8017 -0.1745 -5.8243 -11.1197 -2.2998 14.8328 3.2485 -2.1123 2.2483 -39.0784 14.2760 -15.6056 17.8855 -0.3385 8.3186 30.3941 -15.8764 -27.9940 -2.6489 -12.2238 6.4493 22.5187 10.9096 11.0472 1.4276 6.4386 0.0000 -0.0000 0.0000 -0.1635 -2.1415 13.0700 -12.9833 20.7039 -5.1923 -8.0066 -19.8427 -5.6070 -0.0000 -3.1887 0.0000 
